<svg xmlns="http://www.w3.org/2000/svg" width="395" height="100" fill="none"><path fill="#434936" d="M91.29 100.001c-3.421 0-5.855-1.532-7.297-4.596L49.67 26.486 15.616 95.405c-1.082 1.983-2.703 3.333-4.865 4.054-2.162.721-4.234.63-6.216-.27C2.552 98.287 1.2 96.71.48 94.46c-.721-2.252-.631-4.372.27-6.352L42.372 4.593C43.814 1.532 46.246 0 49.67 0c3.423 0 5.855 1.532 7.297 4.593L98.59 88.108c.899 1.98.99 4.1.27 6.352-.721 2.25-2.072 3.827-4.055 4.73a7.77 7.77 0 0 1-3.515.811ZM180.078 100.001h-57.631c-2.343 0-4.281-.766-5.812-2.298-1.53-1.532-2.296-3.47-2.296-5.813V8.108c0-2.343.766-4.28 2.296-5.81C118.166.766 120.104 0 122.447 0c2.341 0 4.279.766 5.811 2.298 1.532 1.53 2.298 3.467 2.298 5.81v75.674h49.522c2.165 0 4.054.766 5.677 2.298 1.623 1.532 2.431 3.47 2.431 5.81 0 2.343-.808 4.28-2.431 5.813-1.623 1.532-3.512 2.298-5.677 2.298ZM238.996 100.001c-5.586 0-10.857-1.084-15.81-3.246-4.957-2.161-9.28-5.09-12.974-8.783-3.694-3.694-6.622-8.017-8.783-12.973-2.162-4.954-3.243-10.225-3.243-15.811V8.108c0-2.343.766-4.28 2.295-5.81C202.013.766 203.951 0 206.294 0c2.341 0 4.278.766 5.81 2.298 1.532 1.53 2.298 3.467 2.298 5.81v51.08c0 6.849 2.386 12.659 7.161 17.433 4.774 4.775 10.585 7.16 17.433 7.16 6.846 0 12.659-2.385 17.433-7.16 4.775-4.774 7.161-10.584 7.161-17.433V8.108c0-2.343.811-4.28 2.434-5.81C267.644.766 269.627 0 271.967 0c2.165 0 4.055.766 5.677 2.298 1.623 1.53 2.432 3.467 2.432 5.81v51.08c0 5.586-1.081 10.857-3.243 15.81-2.162 4.957-5.09 9.28-8.783 12.974-3.694 3.694-8.063 6.622-13.107 8.783-5.047 2.162-10.361 3.246-15.947 3.246ZM386.427 100.001c-2.341 0-4.324-.812-5.947-2.434l-6.755-6.758c-8.65 6.128-18.29 9.192-28.92 9.192-6.845 0-13.288-1.308-19.323-3.92-6.037-2.614-11.308-6.171-15.81-10.676-4.505-4.506-8.066-9.82-10.678-15.947-2.61-6.125-3.918-12.61-3.918-19.459 0-6.846 1.308-13.334 3.918-19.459 2.612-6.125 6.173-11.441 10.678-15.946 4.502-4.506 9.773-8.063 15.81-10.676C331.517 1.305 337.96 0 344.805 0c6.849 0 13.289 1.305 19.326 3.918 6.034 2.613 11.305 6.17 15.81 10.675 4.505 4.506 8.063 9.822 10.676 15.947 2.613 6.125 3.918 12.613 3.918 19.459 0 10.63-3.061 20.27-9.189 28.92l7.027 7.297c1.441 1.62 2.162 3.558 2.162 5.81 0 2.253-.809 4.1-2.432 5.54-1.622 1.623-3.515 2.435-5.676 2.435Zm-41.622-83.785c-4.684 0-9.007.9-12.973 2.701a35.685 35.685 0 0 0-10.54 7.3c-3.064 3.06-5.45 6.621-7.163 10.675-1.711 4.054-2.568 8.423-2.568 13.107 0 4.684.857 9.056 2.568 13.11 1.713 4.054 4.099 7.611 7.163 10.675a35.678 35.678 0 0 0 10.54 7.297c3.966 1.801 8.289 2.7 12.973 2.7 3.064 0 6.083-.447 9.056-1.35 2.973-.899 5.719-2.07 8.241-3.512L339.67 55.676c-1.62-1.623-2.431-3.56-2.431-5.81 0-2.253.811-4.19 2.431-5.813 1.623-1.441 3.558-2.162 5.81-2.162 2.253 0 4.191.811 5.813 2.434l22.432 22.702c3.062-5.226 4.593-10.9 4.593-17.028 0-4.684-.899-9.053-2.7-13.107-1.802-4.054-4.191-7.614-7.164-10.675-2.973-3.064-6.53-5.496-10.675-7.3a32.21 32.21 0 0 0-12.974-2.7Z"/></svg>